<svg width="1000" height="1000" xmlns="http://www.w3.org/2000/svg">
 <style type="text/css">.st0{fill:#EAECEF;}
	.st1{fill:#2D425E;}
	.st2{fill:#C9C9C9;}
	.st3{fill:#CECECE;}
	.st4{fill:#FFFFFF;}
	.st5{fill:none;stroke:#1F3969;stroke-width:4;stroke-linecap:round;stroke-linejoin:round;stroke-miterlimit:10;}
	.st6{fill:#FF3E3E;}
	.st7{opacity:0.28;fill:#1F3969;stroke:#1F3969;stroke-width:4;stroke-linecap:round;stroke-linejoin:round;stroke-miterlimit:10;}
	.st8{fill:#50B56F;}
	.st9{fill:#5F5AFF;}
	.st10{fill:#F6F9FD;}
	.st11{fill:#BFCFE2;}
	.st12{fill:#D0DDF0;}
	.st13{fill:#2AA1FF;}
	.st14{opacity:0.34;fill:none;stroke:#FFFFFF;stroke-width:2;stroke-linecap:round;stroke-linejoin:round;stroke-miterlimit:10;}
	.st15{opacity:0.34;}
	.st16{fill:none;stroke:#FFFFFF;stroke-width:2;stroke-linecap:round;stroke-linejoin:round;stroke-miterlimit:10;}
	.st17{fill:#1F3969;}
	.st18{fill:none;stroke:#FFFFFF;stroke-width:4;stroke-linecap:round;stroke-linejoin:round;stroke-miterlimit:10;}
	.st19{fill:none;stroke:#7BFFA0;stroke-width:4;stroke-linecap:round;stroke-linejoin:round;stroke-miterlimit:10;}
	.st20{fill:none;stroke:#9169FF;stroke-width:4;stroke-linecap:round;stroke-linejoin:round;stroke-miterlimit:10;}
	.st21{fill:none;stroke:#FFC47D;stroke-width:4;stroke-linecap:round;stroke-linejoin:round;stroke-miterlimit:10;}
	.st22{fill:none;stroke:#FF5757;stroke-width:4;stroke-linecap:round;stroke-linejoin:round;stroke-miterlimit:10;}
	.st23{fill:#FFA364;}
	.st24{fill:#FF5252;}
	.st25{fill:#6567C3;}</style>

 <g>
  <title>background</title>
  <rect fill="none" id="canvas_background" height="402" width="582" y="-1" x="-1"/>
 </g>
 <g>
  <title>Layer 1</title>
  <rect id="svg_1" height="1000" width="1000" class="st0"/>
  <g id="XMLID_34_">
   <path d="m789.5,666.3l-620.3,0c-5,0 -9,-4 -9,-9l0,0c0,-5 4,-9 9,-9l620.3,0c5,0 9,4 9,9l0,0c0,5 -4,9 -9,9z" class="st2" id="XMLID_223_"/>
   <g id="XMLID_19_">
    <g id="XMLID_163_">
     <path d="m285.9,573.3c-9.6,0 -17.3,-7.8 -17.3,-17.3s7.8,-17.3 17.3,-17.3l98,0l0,34.7l-98,0l0,-0.1z" class="st3" id="XMLID_178_"/>
     <path d="m389.6,579.3l-103.7,0c-12.9,0 -23.3,-10.5 -23.3,-23.3l0,0c0,-12.9 10.5,-23.3 23.3,-23.3l103.7,0l0,46.6z" class="st4" id="XMLID_162_"/>
     <line y2="550.6" x2="383.9" y1="550.6" x1="279.5" class="st5" id="XMLID_164_"/>
     <line y2="561.2" x2="383.9" y1="561.2" x1="279.5" class="st5" id="XMLID_173_"/>
     <path d="m285.9,573.3c-9.6,0 -17.3,-7.8 -17.3,-17.3s7.8,-17.3 17.3,-17.3l98,0l0,34.7l-98,0l0,-0.1z" class="st5" id="XMLID_179_"/>
     <path d="m285.9,573.3c-9.6,0 -17.3,-7.8 -17.3,-17.3s7.8,-17.3 17.3,-17.3l99.7,0l4,-6l-103.7,0c-12.9,0 -23.3,10.5 -23.3,23.3l0,0c0,12.9 10.5,23.3 23.3,23.3l103.7,0l-4,-6l-99.7,0z" class="st6" id="XMLID_161_"/>
     <path d="m285.9,573.3c-9.6,0 -17.3,-7.8 -17.3,-17.3s7.8,-17.3 17.3,-17.3l99.7,0l4,-6l-103.7,0c-12.9,0 -23.3,10.5 -23.3,23.3l0,0c0,12.9 10.5,23.3 23.3,23.3l103.7,0l-4,-6l-99.7,0z" class="st5" id="XMLID_182_"/>
     <rect height="46.7" width="18.4" class="st7" y="532.6" x="348.9" id="XMLID_224_"/>
    </g>
    <g id="XMLID_160_">
     <path d="m378.9,617.8l-189.9,0c-3.7,0 -6.8,-3 -6.8,-6.8l0,-25c0,-3.7 3,-6.8 6.8,-6.8l189.9,0c3.7,0 6.8,3 6.8,6.8l0,25c0,3.8 -3,6.8 -6.8,6.8z" class="st8" id="XMLID_157_"/>
     <g id="svg_109">
      <path id="svg_110" d="m240.3,599.8l-2.6,0l0,5.5l-1.7,0l0,-13.3l4.3,0c3.1,0 4.6,1.7 4.6,3.9c0,2 -1.3,3.9 -4.6,3.9zm0,-1.5c2,0 2.8,-0.9 2.8,-2.4c0,-1.5 -0.8,-2.5 -2.8,-2.5l-2.6,0l0,4.9l2.6,0z" class="st4"/>
      <path id="svg_111" d="m249.7,592l1.9,0l3.3,6.7l3.3,-6.7l1.9,0l-4.3,8.3l0,5l-1.7,0l0,-5l-4.4,-8.3z" class="st4"/>
      <path id="svg_112" d="m264.9,592l9,0l0,1.4l-3.6,0l0,11.9l-1.7,0l0,-11.9l-3.6,0l0,-1.4l-0.1,0z" class="st4"/>
      <path id="svg_113" d="m288.4,599.3l-6.8,0l0,6l-1.7,0l0,-13.3l1.7,0l0,5.8l6.8,0l0,-5.8l1.7,0l0,13.3l-1.7,0l0,-6z" class="st4"/>
      <path id="svg_114" d="m302.9,605.4c-3.7,0 -6.7,-2.8 -6.7,-6.8c0,-4 2.9,-6.8 6.7,-6.8c3.8,0 6.7,2.8 6.7,6.8c-0.1,4 -3,6.8 -6.7,6.8zm0,-1.5c2.8,0 4.9,-2 4.9,-5.3c0,-3.3 -2.1,-5.3 -4.9,-5.3s-4.9,2 -4.9,5.3c0,3.3 2.1,5.3 4.9,5.3z" class="st4"/>
      <path id="svg_115" d="m326.1,592l0,13.3l-1.7,0l-7,-10.6l0,10.6l-1.7,0l0,-13.3l1.7,0l7,10.5l0,-10.5l1.7,0z" class="st4"/>
     </g>
     <path d="m378.9,617.8l-189.9,0c-3.7,0 -6.8,-3 -6.8,-6.8l0,-25c0,-3.7 3,-6.8 6.8,-6.8l189.9,0c3.7,0 6.8,3 6.8,6.8l0,25c0,3.8 -3,6.8 -6.8,6.8z" class="st5" id="XMLID_146_"/>
    </g>
    <path d="m378.9,579.3l-30,0l0,15c0,9.4 7.6,17.1 17.1,17.1l19.7,0c0,-0.1 0,-0.2 0,-0.3l0,-25c0,-3.8 -3,-6.8 -6.8,-6.8z" class="st7" id="XMLID_246_"/>
    <path d="m432.4,625.6l-220,0c1.3,3.2 2,7.2 2,11.4c0,4.2 -0.7,8.1 -2,11.4l219.9,0c-1.3,-3.2 -2,-7.2 -2,-11.4c0.1,-4.3 0.8,-8.2 2.1,-11.4z" class="st3" id="XMLID_35_"/>
    <rect height="6" width="231.9" class="st9" y="619.5" x="206.5" id="XMLID_156_"/>
    <rect height="6" width="231.9" class="st5" y="619.5" x="206.5" id="XMLID_32_"/>
    <rect height="6" width="231.9" class="st10" y="648.3" x="206.5" id="XMLID_147_"/>
    <rect height="6" width="231.9" class="st9" y="648.3" x="206.5" id="XMLID_39_"/>
    <rect height="6" width="231.9" class="st5" y="648.3" x="206.5" id="XMLID_37_"/>
    <path d="m553.6,633l-3,-33.7l-49.4,0l-3,33.7c-0.7,7.8 -5.4,15.3 -12.8,21.3l0,0.1l81,0l0,-0.1c-7.4,-6 -12.1,-13.5 -12.8,-21.3z" class="st11" id="XMLID_69_"/>
    <polygon points="501.2,599.3 499.4,619.5 552.4,619.5 550.6,599.3   " class="st7" id="XMLID_33_"/>
    <path d="m553.6,633l-3,-33.7l-49.4,0l-3,33.7c-0.7,7.8 -5.4,15.3 -12.8,21.3l0,0.1l81,0l0,-0.1c-7.4,-6 -12.1,-13.5 -12.8,-21.3z" class="st5" id="XMLID_10_"/>
    <path d="m683.9,604.3l-316,0c-6.6,0 -12,-5.4 -12,-12l0,-206c0,-6.6 5.4,-12 12,-12l316,0c6.6,0 12,5.4 12,12l0,206c0,6.7 -5.4,12 -12,12z" class="st4" id="XMLID_13_"/>
    <path d="m683.9,604.3l-316,0c-6.6,0 -12,-5.4 -12,-12l0,-206c0,-6.6 5.4,-12 12,-12l316,0c6.6,0 12,5.4 12,12l0,206c0,6.7 -5.4,12 -12,12z" class="st11" id="XMLID_63_"/>
    <path d="m683.9,604.3l-316,0c-6.6,0 -12,-5.4 -12,-12l0,-206c0,-6.6 5.4,-12 12,-12l316,0c6.6,0 12,5.4 12,12l0,206c0,6.7 -5.4,12 -12,12z" class="st5" id="XMLID_4_"/>
    <rect height="306" width="174.6" class="st10" transform="matrix(-1.83697e-16,1,-1,-1.83697e-16,1004.5556,-47.2719) " y="325.6" x="438.6" id="XMLID_68_"/>
    <path d="m383.9,374.3l0,138.6c0,4.4 3.6,8 8,8l189.1,0c4.4,0 8,-3.6 8,-8l0,-138.6l-205.1,0z" class="st7" id="XMLID_197_"/>
    <rect height="306" width="174.6" class="st5" transform="matrix(-1.83697e-16,1,-1,-1.83697e-16,1004.5556,-47.2719) " y="325.6" x="438.6" id="XMLID_11_"/>
    <line y2="585" x2="539.4" y1="585" x1="512.5" class="st5" id="XMLID_9_"/>
    <path d="m590,509.9l-189.1,0c-4.4,0 -8,-3.6 -8,-8l0,-148.2c0,-4.4 3.6,-8 8,-8l189.1,0c4.4,0 8,3.6 8,8l0,148.3c0,4.4 -3.6,7.9 -8,7.9z" class="st1" id="XMLID_15_"/>
    <path d="m598,365.1l-205.1,0l0,-11.5c0,-4.4 3.6,-8 8,-8l189.1,0c4.4,0 8,3.6 8,8l0,11.5z" class="st5" id="XMLID_17_"/>
    <path d="m598,368.9l-205.1,0l0,-15.3c0,-4.4 3.6,-8 8,-8l189.1,0c4.4,0 8,3.6 8,8l0,15.3z" class="st12" id="XMLID_23_"/>
    <path d="m598,368.9l-205.1,0l0,-15.3c0,-4.4 3.6,-8 8,-8l189.1,0c4.4,0 8,3.6 8,8l0,15.3z" class="st5" id="XMLID_18_"/>
    <path d="m598,368.9l-205.1,0l0,-15.3c0,-4.4 3.6,-8 8,-8l189.1,0c4.4,0 8,3.6 8,8l0,15.3z" class="st5" id="XMLID_20_"/>
    <path d="m590,509.9l-189.1,0c-4.4,0 -8,-3.6 -8,-8l0,-148.2c0,-4.4 3.6,-8 8,-8l189.1,0c4.4,0 8,3.6 8,8l0,148.3c0,4.4 -3.6,7.9 -8,7.9z" class="st5" id="XMLID_12_"/>
    <g id="XMLID_72_">
     <path d="m688.7,545.3l-116,0c-4.4,0 -8,-3.6 -8,-8l0,-122.9c0,-4.4 3.6,-8 8,-8l116,0c4.4,0 8,3.6 8,8l0,122.9c0,4.5 -3.6,8 -8,8z" class="st7" id="XMLID_7_"/>
     <path d="m696.7,538.3l-116,0c-4.4,0 -8,-3.6 -8,-8l0,-122.9c0,-4.4 3.6,-8 8,-8l116,0c4.4,0 8,3.6 8,8l0,122.9c0,4.5 -3.6,8 -8,8z" class="st13" id="XMLID_16_"/>
     <path d="m696.7,538.3l-116,0c-4.4,0 -8,-3.6 -8,-8l0,-122.9c0,-4.4 3.6,-8 8,-8l116,0c4.4,0 8,3.6 8,8l0,122.9c0,4.5 -3.6,8 -8,8z" class="st5" id="XMLID_14_"/>
     <path d="m679.4,437.5l-81.6,0c-2.9,0 -5.2,-2.3 -5.2,-5.2l0,-7.8c0,-2.9 2.3,-5.2 5.2,-5.2l81.6,0c2.9,0 5.2,2.3 5.2,5.2l0,7.8c0,2.9 -2.3,5.2 -5.2,5.2z" class="st14" id="XMLID_75_"/>
     <g class="st15" id="XMLID_143_">
      <path d="m643.6,466.8l-45.6,0c-2.9,0 -5.2,-2.3 -5.2,-5.2l0,-7.8c0,-2.9 2.3,-5.2 5.2,-5.2l45.6,0c2.9,0 5.2,2.3 5.2,5.2l0,7.8c-0.1,2.9 -2.4,5.2 -5.2,5.2z" class="st16" id="XMLID_78_"/>
      <path d="m679.5,466.8l-17.7,0c-2.9,0 -5.2,-2.3 -5.2,-5.2l0,-7.8c0,-2.9 2.3,-5.2 5.2,-5.2l17.7,0c2.9,0 5.2,2.3 5.2,5.2l0,7.8c0,2.9 -2.3,5.2 -5.2,5.2z" class="st16" id="XMLID_79_"/>
     </g>
     <g id="XMLID_76_">
      <line y2="497.2" x2="684.6" y1="497.2" x1="592.7" class="st16" id="XMLID_135_"/>
      <line y2="508" x2="684.6" y1="508" x1="592.7" class="st16" id="XMLID_136_"/>
      <line y2="518.8" x2="648.7" y1="518.8" x1="592.7" class="st16" id="XMLID_138_"/>
     </g>
    </g>
    <circle r="4" cy="357.3" cx="413" class="st17" id="XMLID_24_"/>
    <circle r="4" cy="357.3" cx="426.9" class="st17" id="XMLID_28_"/>
    <circle r="4" cy="357.3" cx="440.8" class="st17" id="XMLID_38_"/>
    <g id="XMLID_61_">
     <line y2="387.4" x2="523.7" y1="387.4" x1="510.7" class="st18" id="XMLID_54_"/>
     <line y2="387.4" x2="501.1" y1="387.4" x1="444.8" class="st19" id="XMLID_66_"/>
     <line y2="387.4" x2="436.8" y1="387.4" x1="417" class="st20" id="XMLID_29_"/>
    </g>
    <g id="XMLID_42_">
     <line y2="485.9" x2="485.8" y1="485.9" x1="442.8" class="st20" id="XMLID_62_"/>
     <line y2="485.9" x2="430.9" y1="485.9" x1="417" class="st19" id="XMLID_30_"/>
    </g>
    <g id="XMLID_27_">
     <line y2="399.7" x2="509.2" y1="399.7" x1="501.1" class="st18" id="XMLID_60_"/>
     <line y2="399.7" x2="491.5" y1="399.7" x1="464.3" class="st20" id="XMLID_45_"/>
     <line y2="399.7" x2="454.6" y1="399.7" x1="426.9" class="st21" id="XMLID_47_"/>
    </g>
    <g id="XMLID_49_">
     <line y2="412" x2="493.7" y1="412" x1="469.8" class="st18" id="XMLID_59_"/>
     <line y2="412" x2="462.3" y1="412" x1="439.8" class="st22" id="XMLID_50_"/>
    </g>
    <g id="XMLID_65_">
     <line y2="424.3" x2="477.9" y1="424.3" x1="473" class="st18" id="XMLID_58_"/>
     <line y2="424.3" x2="464.3" y1="424.3" x1="453.2" class="st20" id="XMLID_70_"/>
     <line y2="424.3" x2="444.8" y1="424.3" x1="426.9" class="st19" id="XMLID_67_"/>
    </g>
    <g id="XMLID_73_">
     <line y2="436.7" x2="497.2" y1="436.7" x1="465.3" class="st21" id="XMLID_77_"/>
     <line y2="436.7" x2="455.5" y1="436.7" x1="426.9" class="st22" id="XMLID_74_"/>
    </g>
    <g id="XMLID_80_">
     <line y2="449" x2="519.5" y1="449" x1="502.2" class="st20" id="XMLID_64_"/>
     <line y2="449" x2="493" y1="449" x1="465.3" class="st22" id="XMLID_84_"/>
     <line y2="449" x2="455.5" y1="449" x1="439.8" class="st19" id="XMLID_81_"/>
    </g>
    <g id="XMLID_87_">
     <line y2="461.3" x2="493" y1="461.3" x1="477.9" class="st18" id="XMLID_95_"/>
     <line y2="461.3" x2="467.5" y1="461.3" x1="439.8" class="st20" id="XMLID_90_"/>
    </g>
    <g id="XMLID_98_">
     <line y2="473.6" x2="534.5" y1="473.6" x1="517.2" class="st18" id="XMLID_71_"/>
     <line y2="473.6" x2="507.8" y1="473.6" x1="464.3" class="st21" id="XMLID_102_"/>
     <line y2="473.6" x2="454.6" y1="473.6" x1="426.9" class="st18" id="XMLID_99_"/>
    </g>
    <line y2="632.5" x2="430.4" y1="632.5" x1="214.9" class="st5" id="XMLID_145_"/>
    <line y2="640.5" x2="430.4" y1="640.5" x1="214.9" class="st5" id="XMLID_151_"/>
    <path d="m432.4,625.6l-220,0c1.3,3.2 2,7.2 2,11.4c0,4.2 -0.7,8.1 -2,11.4l219.9,0c-1.3,-3.2 -2,-7.2 -2,-11.4c0.1,-4.3 0.8,-8.2 2.1,-11.4z" class="st5" id="XMLID_158_"/>
   </g>
   <g id="XMLID_222_">
    <g id="XMLID_174_">
     <rect height="72.6" width="9.8" class="st23" transform="matrix(0.9932,-0.1166,0.1166,0.9932,-62.746,88.7942) " y="544.4" x="722.8" id="XMLID_177_"/>
     <rect height="7.4" width="9.8" class="st13" transform="matrix(0.9932,-0.1166,0.1166,0.9932,-58.9937,88.1297) " y="544.7" x="719" id="XMLID_31_"/>
     <rect height="7.4" width="9.8" class="st5" transform="matrix(0.9932,-0.1166,0.1166,0.9932,-58.9937,88.1297) " y="544.7" x="719" id="XMLID_217_"/>
     <rect height="72.6" width="9.8" class="st5" transform="matrix(0.9932,-0.1166,0.1166,0.9932,-62.746,88.7942) " y="544.4" x="722.8" id="XMLID_22_"/>
    </g>
    <g id="XMLID_189_">
     <rect height="72.6" width="9.8" class="st24" transform="matrix(0.9941,0.1081,-0.1081,0.9941,68.6015,-77.1711) " y="558.1" x="741.4" id="XMLID_218_"/>
     <rect height="72.6" width="9.8" class="st5" transform="matrix(0.9941,0.1081,-0.1081,0.9941,68.6015,-77.1711) " y="558.1" x="741.4" id="XMLID_214_"/>
     <rect height="7.4" width="9.8" class="st1" transform="matrix(0.9941,0.1081,-0.1081,0.9941,65.1167,-77.742) " y="558.3" x="745" id="XMLID_220_"/>
     <rect height="7.4" width="9.8" class="st5" transform="matrix(0.9941,0.1081,-0.1081,0.9941,65.1167,-77.742) " y="558.3" x="745" id="XMLID_211_"/>
    </g>
    <polygon points="761.1,654.6 721.8,654.6 715.4,594.4 767.5,594.4   " class="st25" id="XMLID_26_"/>
    <polygon points="715.4,594.4 715.5,595.5 755.2,595.5 748.9,654.6 761.1,654.6 767.5,594.4   " class="st25" id="XMLID_233_"/>
    <polygon points="761.1,654.6 721.8,654.6 715.4,594.4 767.5,594.4   " class="st5" id="XMLID_21_"/>
   </g>
  </g>
  <g id="svg_116">
   <g id="svg_117">
    <path id="svg_118" d="m291.6,839.8l-7,0l0,15.2l-4.8,0l0,-36.4l11.8,0c8.6,0 12.6,4.7 12.6,10.7c0,5.5 -3.5,10.5 -12.6,10.5zm0,-3.9c5.4,0 7.7,-2.6 7.7,-6.6c0,-4.2 -2.3,-6.7 -7.7,-6.7l-7,0l0,13.4l7,0l0,-0.1z" class="st1"/>
    <path id="svg_119" d="m327.1,818.6c8.6,0 12.6,4.8 12.6,10.7c0,4.6 -2.6,9.1 -8.7,10.4l9.1,15.3l-5.7,0l-8.7,-14.9l-5.7,0l0,14.9l-4.8,0l0,-36.4l11.9,0zm0,3.9l-7,0l0,13.8l7,0c5.4,0 7.7,-2.9 7.7,-7c0,-4.1 -2.3,-6.8 -7.7,-6.8z" class="st1"/>
    <path id="svg_120" d="m368.8,855.4c-10.2,0 -18.3,-7.7 -18.3,-18.6s8,-18.6 18.3,-18.6c10.3,0 18.3,7.7 18.3,18.6s-8,18.6 -18.3,18.6zm0,-4.2c7.7,0 13.4,-5.6 13.4,-14.5c0,-8.9 -5.7,-14.5 -13.4,-14.5c-7.7,0 -13.4,5.5 -13.4,14.5c0,9 5.7,14.5 13.4,14.5z" class="st1"/>
    <path id="svg_121" d="m431.9,829.1l-5.7,0c-2,-4.2 -6,-6.7 -11.1,-6.7c-7.7,0 -13.4,5.5 -13.4,14.3c0,8.7 5.7,14.3 13.4,14.3c7.2,0 12.1,-4.6 12.8,-11.8l-14.5,0l0,-3.9l19.6,0l0,3.7c-0.8,9 -8,16.3 -17.9,16.3c-10.2,0 -18.3,-7.6 -18.3,-18.5s8,-18.6 18.3,-18.6c7.7,0 14.1,3.9 16.8,10.9z" class="st1"/>
    <path id="svg_122" d="m456.2,818.6c8.6,0 12.6,4.8 12.6,10.7c0,4.6 -2.6,9.1 -8.7,10.4l9.1,15.3l-5.7,0l-8.7,-14.9l-5.7,0l0,14.9l-4.8,0l0,-36.4l11.9,0zm0,3.9l-7,0l0,13.8l7,0c5.4,0 7.7,-2.9 7.7,-7c0.1,-4.1 -2.2,-6.8 -7.7,-6.8z" class="st1"/>
    <path id="svg_123" d="m503,846.9l-15.9,0l-2.9,8.1l-5,0l13.2,-36.2l5.5,0l13.1,36.2l-5,0l-3,-8.1zm-8,-22.2l-6.6,18.4l13.2,0l-6.6,-18.4z" class="st1"/>
    <path id="svg_124" d="m521.9,818.9l5.1,0l13.4,29.9l13.4,-29.9l5.1,0l0,36.1l-4.8,0l0,-27l-12,27l-3.3,0l-12.1,-27l0,27l-4.8,0l0,-36.1z" class="st1"/>
    <path id="svg_125" d="m572.1,818.9l5.1,0l13.4,29.9l13.4,-29.9l5.1,0l0,36.1l-4.8,0l0,-27l-12,27l-3.3,0l-12.1,-27l0,27l-4.8,0l0,-36.1z" class="st1"/>
    <path id="svg_126" d="m622.3,818.6l4.8,0l0,36.4l-4.8,0l0,-36.4z" class="st1"/>
    <path id="svg_127" d="m669,818.5l0,36.5l-4.8,0l-19.1,-29l0,29l-4.8,0l0,-36.5l4.8,0l19.1,28.9l0,-28.9l4.8,0z" class="st1"/>
    <path id="svg_128" d="m715.6,829.1l-5.7,0c-2,-4.2 -6,-6.7 -11.1,-6.7c-7.7,0 -13.4,5.5 -13.4,14.3c0,8.7 5.7,14.3 13.4,14.3c7.2,0 12.1,-4.6 12.8,-11.8l-14.5,0l0,-3.9l19.6,0l0,3.7c-0.8,9 -8,16.3 -17.9,16.3c-10.2,0 -18.3,-7.6 -18.3,-18.5s8,-18.6 18.3,-18.6c7.7,0 14.1,3.9 16.8,10.9z" class="st1"/>
   </g>
  </g>
 </g>
</svg>