<svg width="1000" height="1000" xmlns="http://www.w3.org/2000/svg">
 <style type="text/css">.st0{fill:#DCE2E1;}
	.st1{fill:#444E59;}
	.st2{opacity:0.28;fill:#848484;}
	.st3{fill:#F09F54;}
	.st4{opacity:0.29;fill:#F09F54;}
	.st5{fill:none;stroke:#444E59;stroke-width:4;stroke-linecap:round;stroke-linejoin:round;stroke-miterlimit:10;}
	.st6{fill:none;stroke:#444E59;stroke-width:3;stroke-linecap:round;stroke-linejoin:round;stroke-miterlimit:10;}
	.st7{fill:#848484;}
	.st8{opacity:0.25;fill:#848484;}
	.st9{fill:#FFFFFF;}
	.st10{fill:#71A850;}
	.st11{opacity:0.4;fill:#71A850;}
	.st12{opacity:0.48;fill:#848484;}
	.st13{fill:#E9FBFF;}
	.st14{fill:#C9C9C9;}
	.st15{fill:none;stroke:#444E59;stroke-width:5;stroke-linecap:round;stroke-linejoin:round;stroke-miterlimit:10;}
	.st16{opacity:0.29;fill:#848484;}
	.st17{opacity:0.3;}
	.st18{fill:none;stroke:#444E59;stroke-width:2;stroke-linecap:round;stroke-linejoin:round;stroke-dasharray:4.0794,4.0794;}
	.st19{opacity:0.52;fill:#5F8C42;}
	.st20{opacity:0.52;fill:#D38444;}
	.st21{fill:#2FA9ED;}
	.st22{opacity:0.52;fill:#288FBC;}
	.st23{fill:#E7534E;}
	.st24{opacity:0.52;fill:#BF4040;}
	.st25{fill:none;stroke:#FFFFFF;stroke-width:4;stroke-linecap:round;stroke-linejoin:round;stroke-miterlimit:10;}
	.st26{opacity:0.29;}
	.st27{fill:#BCBCBC;}
	.st28{fill:none;stroke:#64BDFF;stroke-width:4;stroke-linecap:round;stroke-linejoin:round;stroke-miterlimit:10;}
	.st29{fill:none;stroke:#FF5F5F;stroke-width:4;stroke-linecap:round;stroke-linejoin:round;stroke-miterlimit:10;}
	.st30{fill:none;stroke:#FFBE78;stroke-width:4;stroke-linecap:round;stroke-linejoin:round;stroke-miterlimit:10;}
	.st31{fill:none;stroke:#C383F2;stroke-width:4;stroke-linecap:round;stroke-linejoin:round;stroke-miterlimit:10;}
	.st32{fill:none;stroke:#6DBF7B;stroke-width:4;stroke-linecap:round;stroke-linejoin:round;stroke-miterlimit:10;}
	.st33{fill:#9483C4;}
	.st34{opacity:0.56;fill:none;stroke:#FFFFFF;stroke-width:3;stroke-linecap:round;stroke-linejoin:round;stroke-miterlimit:10;}
	.st35{opacity:0.56;}
	.st36{fill:none;stroke:#FFFFFF;stroke-width:3;stroke-linecap:round;stroke-linejoin:round;stroke-miterlimit:10;}</style>

 <g>
  <title>background</title>
  <rect fill="none" id="canvas_background" height="402" width="582" y="-1" x="-1"/>
 </g>
 <g>
  <title>Layer 1</title>
  <rect y="-1" height="1000" width="1000" class="st0" x="0" id="XMLID_272_"/>
  <g id="XMLID_238_">
   <path d="m837.8,666.3l-675.6,0c-5,0 -9,-4 -9,-9l0,0c0,-5 4,-9 9,-9l675.7,0c5,0 9,4 9,9l0,0c-0.1,5 -4.1,9 -9.1,9z" class="st2" id="XMLID_1313_"/>
   <g id="XMLID_45_">
    <path d="m808.5,573.9c0,-37.2 -28.2,-67.8 -64.7,-71.3l0,-8.4l-21.9,0l0,160.7l21.9,0l0,-9.7c36.4,-3.5 64.7,-34.1 64.7,-71.3zm-64.8,48.2l0,-96.3c23.4,3.4 41.8,23.7 41.8,48.2c0,24.4 -18.4,44.7 -41.8,48.1z" class="st3" id="XMLID_41_"/>
    <path d="m743.7,502.6l0,-8.4l-21.9,0l0,160.7l21.9,0l0,-9.7c36.5,-3.5 64.7,-34 64.7,-71.3c0.1,-37.2 -28.2,-67.8 -64.7,-71.3zm0,135.2l0,8.3l-20.5,0l0,-144.6l20.5,0l0,8.5c32.1,3.1 58,30.5 58,63.9c0.1,33.4 -25.8,60.8 -58,63.9z" class="st4" id="XMLID_222_"/>
    <path d="m808.5,573.9c0,-37.2 -28.2,-67.8 -64.7,-71.3l0,-8.4l-21.9,0l0,160.7l21.9,0l0,-9.7c36.4,-3.5 64.7,-34.1 64.7,-71.3zm-64.8,48.2l0,-96.3c23.4,3.4 41.8,23.7 41.8,48.2c0,24.4 -18.4,44.7 -41.8,48.1z" class="st5" id="XMLID_48_"/>
    <g id="XMLID_49_">
     <g id="XMLID_67_">
      <line y2="638.8" x2="721.8" y1="638.8" x1="730.6" class="st6" id="XMLID_68_"/>
     </g>
     <g id="XMLID_65_">
      <line y2="622.8" x2="721.8" y1="622.8" x1="730.6" class="st6" id="XMLID_66_"/>
     </g>
     <g id="XMLID_63_">
      <line y2="606.7" x2="721.8" y1="606.7" x1="730.6" class="st6" id="XMLID_64_"/>
     </g>
     <g id="XMLID_61_">
      <line y2="590.6" x2="721.8" y1="590.6" x1="730.6" class="st6" id="XMLID_62_"/>
     </g>
     <g id="XMLID_59_">
      <line y2="574.6" x2="721.8" y1="574.6" x1="730.6" class="st6" id="XMLID_60_"/>
     </g>
     <g id="XMLID_56_">
      <line y2="558.5" x2="721.8" y1="558.5" x1="730.6" class="st6" id="XMLID_57_"/>
     </g>
     <g id="XMLID_54_">
      <line y2="542.4" x2="721.8" y1="542.4" x1="730.6" class="st6" id="XMLID_55_"/>
     </g>
     <g id="XMLID_52_">
      <line y2="526.3" x2="721.8" y1="526.3" x1="730.6" class="st6" id="XMLID_53_"/>
     </g>
     <g id="XMLID_50_">
      <line y2="510.3" x2="721.8" y1="510.3" x1="730.6" class="st6" id="XMLID_51_"/>
     </g>
    </g>
   </g>
   <g id="XMLID_212_">
    <rect height="241.6" width="33.1" class="st3" y="412.9" x="673.3" id="XMLID_207_"/>
    <rect height="241.6" width="33.1" class="st3" y="412.9" x="673.3" id="XMLID_208_"/>
    <rect height="241.6" width="14.4" class="st4" y="412.9" x="692" id="XMLID_209_"/>
    <rect height="241.6" width="33.1" class="st5" y="412.9" x="673.3" id="XMLID_121_"/>
    <g id="XMLID_203_">
     <g id="XMLID_266_">
      <line y2="630.1" x2="673.3" y1="630.1" x1="684.8" class="st6" id="XMLID_269_"/>
      <line y2="641.6" x2="673.3" y1="641.6" x1="680.4" class="st6" id="XMLID_268_"/>
     </g>
     <g id="XMLID_262_">
      <line y2="607.1" x2="673.3" y1="607.1" x1="684.8" class="st6" id="XMLID_265_"/>
      <line y2="618.6" x2="673.3" y1="618.6" x1="680.4" class="st6" id="XMLID_264_"/>
     </g>
     <g id="XMLID_258_">
      <line y2="584.1" x2="673.3" y1="584.1" x1="684.8" class="st6" id="XMLID_261_"/>
      <line y2="595.6" x2="673.3" y1="595.6" x1="680.4" class="st6" id="XMLID_260_"/>
     </g>
     <g id="XMLID_254_">
      <line y2="561" x2="673.3" y1="561" x1="684.8" class="st6" id="XMLID_257_"/>
      <line y2="572.5" x2="673.3" y1="572.5" x1="680.4" class="st6" id="XMLID_256_"/>
     </g>
     <g id="XMLID_249_">
      <line y2="538" x2="673.3" y1="538" x1="684.8" class="st6" id="XMLID_253_"/>
      <line y2="549.5" x2="673.3" y1="549.5" x1="680.4" class="st6" id="XMLID_251_"/>
     </g>
     <g id="XMLID_245_">
      <line y2="515" x2="673.3" y1="515" x1="684.8" class="st6" id="XMLID_248_"/>
      <line y2="526.5" x2="673.3" y1="526.5" x1="680.4" class="st6" id="XMLID_247_"/>
     </g>
     <g id="XMLID_223_">
      <line y2="492" x2="673.3" y1="492" x1="684.8" class="st6" id="XMLID_244_"/>
      <line y2="503.5" x2="673.3" y1="503.5" x1="680.4" class="st6" id="XMLID_243_"/>
     </g>
     <g id="XMLID_215_">
      <line y2="469" x2="673.3" y1="469" x1="684.8" class="st6" id="XMLID_219_"/>
      <line y2="480.5" x2="673.3" y1="480.5" x1="680.4" class="st6" id="XMLID_218_"/>
     </g>
     <g id="XMLID_118_">
      <line y2="446" x2="673.3" y1="446" x1="684.8" class="st6" id="XMLID_210_"/>
      <line y2="457.5" x2="673.3" y1="457.5" x1="680.4" class="st6" id="XMLID_141_"/>
     </g>
     <g id="XMLID_36_">
      <line y2="423" x2="673.3" y1="423" x1="684.8" class="st6" id="XMLID_113_"/>
      <line y2="434.5" x2="673.3" y1="434.5" x1="680.4" class="st6" id="XMLID_112_"/>
     </g>
    </g>
   </g>
   <g id="XMLID_1_">
    <rect height="34.1" width="12.9" class="st7" y="471.3" x="612.1" id="XMLID_93_"/>
    <rect height="34.1" width="4.8" class="st8" y="471.3" x="612.1" id="XMLID_237_"/>
    <rect height="34.1" width="12.9" class="st5" y="471.3" x="612.1" id="XMLID_40_"/>
    <rect height="16.5" width="5.9" class="st9" y="505.5" x="615.6" id="XMLID_95_"/>
    <rect height="16.5" width="5.9" class="st5" y="505.5" x="615.6" id="XMLID_42_"/>
    <g id="XMLID_16_">
     <polygon points="608.6,536.7 578.6,654.4 624.2,538.3    " class="st9" id="XMLID_98_"/>
     <polygon points="608.6,536.7 578.6,654.4 624.2,538.3    " class="st5" id="XMLID_37_"/>
     <polygon points="628.6,536.7 658.6,654.4 613.1,538.3    " class="st9" id="XMLID_97_"/>
     <polygon points="628.6,536.7 658.6,654.4 613.1,538.3    " class="st5" id="XMLID_38_"/>
    </g>
    <circle r="20" cy="539.8" cx="618.6" class="st10" id="XMLID_91_"/>
    <path d="m604.2,539.8c0,-10.1 7.5,-18.4 17.2,-19.8c-0.9,-0.1 -1.8,-0.2 -2.8,-0.2c-11,0 -20,9 -20,20s9,20 20,20c0.9,0 1.9,-0.1 2.8,-0.2c-9.7,-1.4 -17.2,-9.7 -17.2,-19.8z" class="st11" id="XMLID_241_"/>
    <circle r="20" cy="539.8" cx="618.6" class="st5" id="XMLID_39_"/>
    <circle r="6.8" cy="539.8" cx="618.6" class="st1" id="XMLID_94_"/>
    <circle r="6.8" cy="539.8" cx="618.6" class="st5" id="XMLID_92_"/>
   </g>
   <path d="m546.4,654.2l-132,0c-7.7,0 -14,-6.3 -14,-14l0,-272c0,-7.7 6.3,-14 14,-14l132,0c7.7,0 14,6.3 14,14l0,272c0,7.7 -6.3,14 -14,14z" class="st7" id="XMLID_75_"/>
   <path d="m546.4,354.2l-8.4,0c7.7,0 14,6.3 14,14l0,272c0,7.7 -6.3,14 -14,14l8.5,0c7.7,0 14,-6.3 14,-14l0,-272c-0.1,-7.8 -6.4,-14 -14.1,-14z" class="st2" id="XMLID_116_"/>
   <path d="m408.7,640.2l0,-272c0,-7.7 6.3,-14 14,-14l-8.3,0c-7.7,0 -14,6.3 -14,14l0,272c0,7.7 6.3,14 14,14l8.3,0c-7.7,0 -14,-6.3 -14,-14z" class="st12" id="XMLID_81_"/>
   <path d="m546.4,654.2l-132,0c-7.7,0 -14,-6.3 -14,-14l0,-272c0,-7.7 6.3,-14 14,-14l132,0c7.7,0 14,6.3 14,14l0,272c0,7.7 -6.3,14 -14,14z" class="st5" id="XMLID_3_"/>
   <rect height="160" width="224" class="st13" transform="matrix(-1.83697e-16,1,-1,-1.83697e-16,984.1191,23.288) " y="423.7" x="368.4" id="XMLID_77_"/>
   <path d="m559.6,463.9l-12.5,0c-6.8,0 -12.3,-5.5 -12.3,-12.3l0,-30.5c0,-6.8 5.5,-12.3 12.3,-12.3l12.5,0l0,55.1z" class="st14" id="XMLID_5_"/>
   <path d="m409.6,587.5l-9.2,0l0,-97.3l9.2,0c6.9,0 12.5,5.6 12.5,12.5l0,72.3c-0.1,6.9 -5.6,12.5 -12.5,12.5z" class="st14" id="XMLID_2_"/>
   <rect height="160" width="224" class="st5" transform="matrix(-1.83697e-16,1,-1,-1.83697e-16,984.1191,23.288) " y="423.7" x="368.4" id="XMLID_6_"/>
   <g id="XMLID_4_">
    <line y2="374.2" x2="509.4" y1="374.2" x1="502.4" class="st15" id="XMLID_9_"/>
    <line y2="374.2" x2="491.4" y1="374.2" x1="451.4" class="st15" id="XMLID_7_"/>
   </g>
   <g id="XMLID_228_">
    <circle r="11" cy="632.6" cx="480.4" class="st16" id="XMLID_8_"/>
    <circle r="8.4" cy="632.6" cx="480.4" class="st1" id="XMLID_78_"/>
   </g>
   <g class="st17" id="XMLID_14_">
    <g id="XMLID_32_">
     <g id="XMLID_58_">
      <path id="svg_112" d="m443.9,588.9l-16,0c-4.4,0 -8,-3.6 -8,-8l0,-16c0,-4.4 3.6,-8 8,-8l16,0c4.4,0 8,3.6 8,8l0,16c0,4.4 -3.6,8 -8,8z" class="st18"/>
     </g>
     <g id="XMLID_35_">
      <path id="svg_113" d="m532.4,588.9l-16,0c-4.4,0 -8,-3.6 -8,-8l0,-16c0,-4.4 3.6,-8 8,-8l16,0c4.4,0 8,3.6 8,8l0,16c0,4.4 -3.6,8 -8,8z" class="st18"/>
     </g>
     <g id="XMLID_34_">
      <path id="svg_114" d="m488.4,588.9l-16,0c-4.4,0 -8,-3.6 -8,-8l0,-16c0,-4.4 3.6,-8 8,-8l16,0c4.4,0 8,3.6 8,8l0,16c0,4.4 -3.6,8 -8,8z" class="st18"/>
     </g>
    </g>
    <g id="XMLID_27_">
     <g id="XMLID_31_">
      <path id="svg_115" d="m443.9,540.9l-16,0c-4.4,0 -8,-3.6 -8,-8l0,-16c0,-4.4 3.6,-8 8,-8l16,0c4.4,0 8,3.6 8,8l0,16c0,4.4 -3.6,8 -8,8z" class="st18"/>
     </g>
     <g id="XMLID_30_">
      <path id="svg_116" d="m532.4,540.9l-16,0c-4.4,0 -8,-3.6 -8,-8l0,-16c0,-4.4 3.6,-8 8,-8l16,0c4.4,0 8,3.6 8,8l0,16c0,4.4 -3.6,8 -8,8z" class="st18"/>
     </g>
     <g id="XMLID_29_">
      <path id="svg_117" d="m488.4,540.9l-16,0c-4.4,0 -8,-3.6 -8,-8l0,-16c0,-4.4 3.6,-8 8,-8l16,0c4.4,0 8,3.6 8,8l0,16c0,4.4 -3.6,8 -8,8z" class="st18"/>
     </g>
    </g>
    <g id="XMLID_22_">
     <g id="XMLID_26_">
      <path id="svg_118" d="m443.9,492.9l-16,0c-4.4,0 -8,-3.6 -8,-8l0,-16c0,-4.4 3.6,-8 8,-8l16,0c4.4,0 8,3.6 8,8l0,16c0,4.4 -3.6,8 -8,8z" class="st18"/>
     </g>
     <g id="XMLID_25_">
      <path id="svg_119" d="m532.4,492.9l-16,0c-4.4,0 -8,-3.6 -8,-8l0,-16c0,-4.4 3.6,-8 8,-8l16,0c4.4,0 8,3.6 8,8l0,16c0,4.4 -3.6,8 -8,8z" class="st18"/>
     </g>
     <g id="XMLID_24_">
      <path id="svg_120" d="m488.4,492.9l-16,0c-4.4,0 -8,-3.6 -8,-8l0,-16c0,-4.4 3.6,-8 8,-8l16,0c4.4,0 8,3.6 8,8l0,16c0,4.4 -3.6,8 -8,8z" class="st18"/>
     </g>
    </g>
    <g id="XMLID_17_">
     <g id="XMLID_21_">
      <path id="svg_121" d="m443.9,444.9l-16,0c-4.4,0 -8,-3.6 -8,-8l0,-16c0,-4.4 3.6,-8 8,-8l16,0c4.4,0 8,3.6 8,8l0,16c0,4.4 -3.6,8 -8,8z" class="st18"/>
     </g>
     <g id="XMLID_20_">
      <path id="svg_122" d="m532.4,444.9l-16,0c-4.4,0 -8,-3.6 -8,-8l0,-16c0,-4.4 3.6,-8 8,-8l16,0c4.4,0 8,3.6 8,8l0,16c0,4.4 -3.6,8 -8,8z" class="st18"/>
     </g>
     <g id="XMLID_19_">
      <path id="svg_123" d="m488.4,444.9l-16,0c-4.4,0 -8,-3.6 -8,-8l0,-16c0,-4.4 3.6,-8 8,-8l16,0c4.4,0 8,3.6 8,8l0,16c0,4.4 -3.6,8 -8,8z" class="st18"/>
     </g>
    </g>
   </g>
   <path d="m443.9,588.9l-16,0c-4.4,0 -8,-3.6 -8,-8l0,-16c0,-4.4 3.6,-8 8,-8l16,0c4.4,0 8,3.6 8,8l0,16c0,4.4 -3.6,8 -8,8z" class="st10" id="XMLID_73_"/>
   <path d="m443.9,556.9l-16,0c-3.2,0 -6,1.9 -7.2,4.6l31.2,5.6l0,-2.2c0,-4.4 -3.6,-8 -8,-8z" class="st19" id="XMLID_80_"/>
   <path d="m443.9,588.9l-16,0c-4.4,0 -8,-3.6 -8,-8l0,-16c0,-4.4 3.6,-8 8,-8l16,0c4.4,0 8,3.6 8,8l0,16c0,4.4 -3.6,8 -8,8z" class="st5" id="XMLID_76_"/>
   <path d="m488.4,588.9l-16,0c-4.4,0 -8,-3.6 -8,-8l0,-16c0,-4.4 3.6,-8 8,-8l16,0c4.4,0 8,3.6 8,8l0,16c0,4.4 -3.6,8 -8,8z" class="st3" id="XMLID_72_"/>
   <path d="m488.4,556.9l-16,0c-3.2,0 -6,1.9 -7.2,4.6l31.2,5.6l0,-2.2c0,-4.4 -3.6,-8 -8,-8z" class="st20" id="XMLID_79_"/>
   <path d="m488.4,588.9l-16,0c-4.4,0 -8,-3.6 -8,-8l0,-16c0,-4.4 3.6,-8 8,-8l16,0c4.4,0 8,3.6 8,8l0,16c0,4.4 -3.6,8 -8,8z" class="st5" id="XMLID_74_"/>
   <g id="XMLID_33_">
    <path d="m532.4,540.9l-16,0c-4.4,0 -8,-3.6 -8,-8l0,-16c0,-4.4 3.6,-8 8,-8l16,0c4.4,0 8,3.6 8,8l0,16c0,4.4 -3.6,8 -8,8z" class="st21" id="XMLID_70_"/>
   </g>
   <path d="m532.4,508.9l-16,0c-3.2,0 -6,1.9 -7.2,4.6l31.2,5.6l0,-2.2c0,-4.4 -3.6,-8 -8,-8z" class="st22" id="XMLID_119_"/>
   <g id="XMLID_69_">
    <path d="m532.4,540.9l-16,0c-4.4,0 -8,-3.6 -8,-8l0,-16c0,-4.4 3.6,-8 8,-8l16,0c4.4,0 8,3.6 8,8l0,16c0,4.4 -3.6,8 -8,8z" class="st5" id="XMLID_71_"/>
   </g>
   <g id="XMLID_13_">
    <g id="svg_124">
     <path d="m488.4,492.9l-16,0c-4.4,0 -8,-3.6 -8,-8l0,-16c0,-4.4 3.6,-8 8,-8l16,0c4.4,0 8,3.6 8,8l0,16c0,4.4 -3.6,8 -8,8z" class="st23" id="XMLID_90_"/>
    </g>
   </g>
   <path d="m488.4,460.9l-16,0c-3.2,0 -6,1.9 -7.2,4.6l31.2,5.6l0,-2.2c0,-4.4 -3.6,-8 -8,-8z" class="st24" id="XMLID_124_"/>
   <g id="XMLID_18_">
    <path d="m488.4,492.9l-16,0c-4.4,0 -8,-3.6 -8,-8l0,-16c0,-4.4 3.6,-8 8,-8l16,0c4.4,0 8,3.6 8,8l0,16c0,4.4 -3.6,8 -8,8z" class="st5" id="XMLID_23_"/>
   </g>
   <path d="m521.8,517.9l9.2,5.3c1.3,0.8 1.3,2.7 0,3.4l-9.2,5.3c-1.3,0.8 -3,-0.2 -3,-1.7l0,-10.6c0,-1.5 1.7,-2.5 3,-1.7z" class="st9" id="XMLID_10_"/>
   <path d="m484.6,566.7l-8.4,0c-1.8,0 -3.2,1.5 -3.2,3.2l0,6.2c0,1.8 1.5,3.2 3.2,3.2l0.3,0l-0.7,2.8c-0.1,0.2 0.2,0.4 0.4,0.2l4.3,-3l4.3,0c1.8,0 3.2,-1.5 3.2,-3.2l0,-6.2c-0.1,-1.8 -1.6,-3.2 -3.4,-3.2z" class="st9" id="XMLID_15_"/>
   <path d="m429.7,572.9l3.7,3.7c0.5,0.5 1.3,0.5 1.8,0l8.3,-8.3" class="st25" id="XMLID_11_"/>
   <circle r="7.5" cy="476.9" cx="480.4" class="st25" id="XMLID_12_"/>
   <g id="XMLID_131_">
    <path d="m420,437.9l-0.2,-15l-10,0.1c-0.6,-1.9 -1.3,-3.6 -2.3,-5.3l7,-7.2l-10.7,-10.5l-7,7.2c-1.7,-0.9 -3.5,-1.6 -5.4,-2.1l-0.1,-10l-15,0.2l0.1,10c-1.9,0.6 -3.6,1.3 -5.3,2.3l-7.2,-7l-10.5,10.7l7.2,7c-0.9,1.7 -1.6,3.5 -2.1,5.4l-10,0.1l0.2,15l10,-0.1c0.6,1.9 1.3,3.6 2.3,5.3l-7,7.2l10.7,10.5l7,-7.2c1.7,0.9 3.5,1.6 5.4,2.1l0.1,10l15,-0.2l-0.1,-10c1.9,-0.6 3.6,-1.3 5.3,-2.3l7.2,7l10.5,-10.7l-7.2,-7c0.9,-1.7 1.6,-3.5 2.1,-5.4l10,-0.1zm-35.5,4.6c-6.5,0.1 -11.7,-5.1 -11.8,-11.6c-0.1,-6.5 5.1,-11.7 11.6,-11.8c6.5,-0.1 11.7,5.1 11.8,11.6c0,6.5 -5.2,11.7 -11.6,11.8z" class="st9" id="XMLID_115_"/>
    <path d="m420,437.9l-0.2,-15l-10,0.1c-0.6,-1.9 -1.3,-3.6 -2.3,-5.3l7,-7.2l-10.7,-10.5l-7,7.2c-1.7,-0.9 -3.5,-1.6 -5.4,-2.1l-0.1,-10l-15,0.2l0.1,10c-1.9,0.6 -3.6,1.3 -5.3,2.3l-7.2,-7l-10.5,10.7l7.2,7c-0.9,1.7 -1.6,3.5 -2.1,5.4l-10,0.1l0.2,15l10,-0.1c0.6,1.9 1.3,3.6 2.3,5.3l-7,7.2l10.7,10.5l7,-7.2c1.7,0.9 3.5,1.6 5.4,2.1l0.1,10l15,-0.2l-0.1,-10c1.9,-0.6 3.6,-1.3 5.3,-2.3l7.2,7l10.5,-10.7l-7.2,-7c0.9,-1.7 1.6,-3.5 2.1,-5.4l10,-0.1zm-35.5,4.6c-6.5,0.1 -11.7,-5.1 -11.8,-11.6c-0.1,-6.5 5.1,-11.7 11.6,-11.8c6.5,-0.1 11.7,5.1 11.8,11.6c0,6.5 -5.2,11.7 -11.6,11.8z" class="st3" id="XMLID_191_"/>
    <path d="m420,437.9l-0.2,-15l-10,0.1c-0.6,-1.9 -1.3,-3.6 -2.3,-5.3l7,-7.2l-10.7,-10.5l-7,7.2c-1.7,-0.9 -3.5,-1.6 -5.4,-2.1l-0.1,-10l-15,0.2l0.1,10c-1.9,0.6 -3.6,1.3 -5.3,2.3l-7.2,-7l-10.5,10.7l7.2,7c-0.9,1.7 -1.6,3.5 -2.1,5.4l-10,0.1l0.2,15l10,-0.1c0.6,1.9 1.3,3.6 2.3,5.3l-7,7.2l10.7,10.5l7,-7.2c1.7,0.9 3.5,1.6 5.4,2.1l0.1,10l15,-0.2l-0.1,-10c1.9,-0.6 3.6,-1.3 5.3,-2.3l7.2,7l10.5,-10.7l-7.2,-7c0.9,-1.7 1.6,-3.5 2.1,-5.4l10,-0.1zm-35.5,4.6c-6.5,0.1 -11.7,-5.1 -11.8,-11.6c-0.1,-6.5 5.1,-11.7 11.6,-11.8c6.5,-0.1 11.7,5.1 11.8,11.6c0,6.5 -5.2,11.7 -11.6,11.8z" class="st3" id="XMLID_234_"/>
    <g class="st26" id="XMLID_246_">
     <path d="m416.2,423c0,0 0,0.1 0,0l3.7,0l0,-0.1l-3.7,0.1z" class="st3" id="XMLID_250_"/>
     <path d="m403.2,407.3l3.9,-4l-3.2,-3.2l-5.2,5.3c1.6,0.5 3.1,1.1 4.5,1.9z" class="st3" id="XMLID_252_"/>
     <path d="m390.5,419.1c-1.1,0 -2.1,0.2 -3,0.4c4.9,1.4 8.5,5.8 8.5,11.1c0.1,5.4 -3.6,10 -8.5,11.4c1,0.3 2.2,0.5 3.3,0.4c6.5,-0.1 11.6,-5.4 11.6,-11.8s-5.4,-11.5 -11.9,-11.5z" class="st3" id="XMLID_255_"/>
     <path d="m375.6,405.6l2,1.9c1.7,-0.9 3.4,-1.7 5.3,-2.3l-0.1,-10l8.6,-0.1l0,-0.1l-15,0.2l0.1,10c-0.2,0.2 -0.6,0.3 -0.9,0.4z" class="st3" id="XMLID_259_"/>
     <path d="m383.4,456.5c-1.9,-0.5 -3.7,-1.2 -5.4,-2.1l-1.8,1.9c0.3,0.1 0.6,0.2 0.9,0.3l0.1,10l6.3,-0.1l-0.1,-10z" class="st3" id="XMLID_263_"/>
     <path d="m355,423.7l10,-0.1c0.5,-1.9 1.2,-3.7 2.1,-5.4l-7.2,-7l7.4,-7.5l-3.2,-3.2l-10.5,10.7l7.2,7c-0.9,1.7 -1.6,3.5 -2.1,5.4l-10,0.1l0.2,15l6.3,-0.1l-0.2,-14.9z" class="st3" id="XMLID_267_"/>
     <path d="m403.7,454.1c-1.4,0.8 -2.8,1.4 -4.3,1.9l5.2,5.1l3.1,-3.2l-4,-3.8z" class="st3" id="XMLID_270_"/>
     <path d="m360.4,451l7,-7.2c-0.9,-1.7 -1.7,-3.4 -2.3,-5.3l-6.3,0.1c0.6,1.8 1.3,3.6 2.2,5.2l-7,7.2l10.7,10.5l3.1,-3.2l-7.4,-7.3z" class="st3" id="XMLID_271_"/>
    </g>
    <path d="m420,437.9l-0.2,-15l-10,0.1c-0.6,-1.9 -1.3,-3.6 -2.3,-5.3l7,-7.2l-10.7,-10.5l-7,7.2c-1.7,-0.9 -3.5,-1.6 -5.4,-2.1l-0.1,-10l-15,0.2l0.1,10c-1.9,0.6 -3.6,1.3 -5.3,2.3l-7.2,-7l-10.5,10.7l7.2,7c-0.9,1.7 -1.6,3.5 -2.1,5.4l-10,0.1l0.2,15l10,-0.1c0.6,1.9 1.3,3.6 2.3,5.3l-7,7.2l10.7,10.5l7,-7.2c1.7,0.9 3.5,1.6 5.4,2.1l0.1,10l15,-0.2l-0.1,-10c1.9,-0.6 3.6,-1.3 5.3,-2.3l7.2,7l10.5,-10.7l-7.2,-7c0.9,-1.7 1.6,-3.5 2.1,-5.4l10,-0.1zm-35.5,4.6c-6.5,0.1 -11.7,-5.1 -11.8,-11.6c-0.1,-6.5 5.1,-11.7 11.6,-11.8c6.5,-0.1 11.7,5.1 11.8,11.6c0,6.5 -5.2,11.7 -11.6,11.8z" class="st5" id="XMLID_130_"/>
   </g>
   <g id="XMLID_190_">
    <path d="m357.5,654.2l-123.7,0c-4.1,0 -7.4,-3.3 -7.4,-7.4l0,-84.6c0,-4.1 3.3,-7.4 7.4,-7.4l123.8,0c4.1,0 7.4,3.3 7.4,7.4l0,84.6c-0.1,4.1 -3.4,7.4 -7.5,7.4z" class="st1" id="XMLID_183_"/>
    <path d="m364.9,570.9l-138.5,0l0,-8.7c0,-4.1 3.3,-7.4 7.4,-7.4l123.8,0c4.1,0 7.4,3.3 7.4,7.4l0,8.7l-0.1,0z" class="st27" id="XMLID_134_"/>
    <path d="m357.5,654.2l-123.7,0c-4.1,0 -7.4,-3.3 -7.4,-7.4l0,-84.6c0,-4.1 3.3,-7.4 7.4,-7.4l123.8,0c4.1,0 7.4,3.3 7.4,7.4l0,84.6c-0.1,4.1 -3.4,7.4 -7.5,7.4z" class="st5" id="XMLID_132_"/>
    <path d="m357.5,654.2l-123.7,0c-4.1,0 -7.4,-3.3 -7.4,-7.4l0,-84.6c0,-4.1 3.3,-7.4 7.4,-7.4l123.8,0c4.1,0 7.4,3.3 7.4,7.4l0,84.6c-0.1,4.1 -3.4,7.4 -7.5,7.4z" class="st5" id="XMLID_182_"/>
    <path d="m364.9,570.9l-138.5,0l0,-8.7c0,-4.1 3.3,-7.4 7.4,-7.4l123.8,0c4.1,0 7.4,3.3 7.4,7.4l0,8.7l-0.1,0z" class="st5" id="XMLID_133_"/>
    <g id="XMLID_135_">
     <g id="XMLID_169_">
      <line y2="641.5" x2="261.1" y1="641.5" x1="245.5" class="st25" id="XMLID_172_"/>
      <line y2="641.5" x2="235.6" y1="641.5" x1="234.5" class="st25" id="XMLID_171_"/>
     </g>
     <g id="XMLID_165_">
      <line y2="632.9" x2="285" y1="632.9" x1="245.5" class="st25" id="XMLID_168_"/>
      <line y2="632.9" x2="235.6" y1="632.9" x1="234.5" class="st25" id="XMLID_167_"/>
     </g>
     <g id="XMLID_160_">
      <line y2="624.2" x2="314.6" y1="624.2" x1="303.8" class="st28" id="XMLID_163_"/>
      <line y2="624.2" x2="294.4" y1="624.2" x1="274.4" class="st25" id="XMLID_185_"/>
      <line y2="624.2" x2="265.3" y1="624.2" x1="245.5" class="st29" id="XMLID_164_"/>
      <line y2="624.2" x2="235.6" y1="624.2" x1="234.5" class="st25" id="XMLID_162_"/>
     </g>
     <g id="XMLID_156_">
      <line y2="615.6" x2="327" y1="615.6" x1="278.8" class="st25" id="XMLID_173_"/>
      <line y2="615.6" x2="270.7" y1="615.6" x1="245.5" class="st28" id="XMLID_159_"/>
      <line y2="615.6" x2="235.6" y1="615.6" x1="234.5" class="st25" id="XMLID_158_"/>
     </g>
     <g id="XMLID_152_">
      <line y2="607" x2="296.8" y1="607" x1="278.8" class="st29" id="XMLID_170_"/>
      <line y2="607" x2="270.7" y1="607" x1="245.5" class="st30" id="XMLID_155_"/>
      <line y2="607" x2="235.6" y1="607" x1="234.5" class="st25" id="XMLID_154_"/>
     </g>
     <g id="XMLID_148_">
      <line y2="598.4" x2="287.2" y1="598.4" x1="282.3" class="st28" id="XMLID_157_"/>
      <line y2="598.4" x2="274.4" y1="598.4" x1="263.3" class="st29" id="XMLID_161_"/>
      <line y2="598.4" x2="254.7" y1="598.4" x1="245.5" class="st31" id="XMLID_151_"/>
      <line y2="598.4" x2="235.6" y1="598.4" x1="234.5" class="st25" id="XMLID_150_"/>
     </g>
     <g id="XMLID_144_">
      <line y2="589.7" x2="327" y1="589.7" x1="318.3" class="st28" id="XMLID_137_"/>
      <line y2="589.7" x2="307.3" y1="589.7" x1="273.2" class="st29" id="XMLID_149_"/>
      <line y2="589.7" x2="265.8" y1="589.7" x1="245.5" class="st30" id="XMLID_147_"/>
      <line y2="589.7" x2="235.6" y1="589.7" x1="234.5" class="st25" id="XMLID_146_"/>
     </g>
     <g id="XMLID_139_">
      <line y2="581.1" x2="314.6" y1="581.1" x1="296.8" class="st30" id="XMLID_145_"/>
      <line y2="581.1" x2="288.2" y1="581.1" x1="274.4" class="st32" id="XMLID_138_"/>
      <line y2="581.1" x2="267.2" y1="581.1" x1="259.4" class="st30" id="XMLID_140_"/>
      <line y2="581.1" x2="251.9" y1="581.1" x1="245.5" class="st32" id="XMLID_143_"/>
      <line y2="581.1" x2="235.6" y1="581.1" x1="234.5" class="st25" id="XMLID_142_"/>
     </g>
    </g>
    <g id="XMLID_153_">
     <circle r="2.5" cy="562.9" cx="240.1" class="st23" id="XMLID_136_"/>
     <circle r="2.5" cy="562.9" cx="249.1" class="st1" id="XMLID_166_"/>
     <circle r="2.5" cy="562.9" cx="258.2" class="st1" id="XMLID_174_"/>
    </g>
   </g>
   <path d="m406.8,579.7l-89.6,0c-4.4,0 -8,-3.6 -8,-8l0,-80.9c0,-4.4 3.6,-8 8,-8l89.6,0c4.4,0 8,3.6 8,8l0,80.9c0,4.4 -3.6,8 -8,8z" class="st9" id="XMLID_176_"/>
   <path d="m406.8,579.7l-89.6,0c-4.4,0 -8,-3.6 -8,-8l0,-80.9c0,-4.4 3.6,-8 8,-8l89.6,0c4.4,0 8,3.6 8,8l0,80.9c0,4.4 -3.6,8 -8,8z" class="st9" id="XMLID_184_"/>
   <path d="m406.8,579.7l-89.6,0c-4.4,0 -8,-3.6 -8,-8l0,-80.9c0,-4.4 3.6,-8 8,-8l89.6,0c4.4,0 8,3.6 8,8l0,80.9c0,4.4 -3.6,8 -8,8z" class="st5" id="XMLID_175_"/>
   <rect height="57.7" width="86.8" class="st33" y="491" x="318.3" id="XMLID_186_"/>
   <rect height="57.7" width="86.8" class="st5" y="491" x="318.3" id="XMLID_177_"/>
   <line y2="557.9" x2="373.1" y1="557.9" x1="318.3" class="st5" id="XMLID_179_"/>
   <line y2="567.1" x2="350.7" y1="567.1" x1="318.3" class="st5" id="XMLID_180_"/>
   <polyline points="327,538.4 345.7,519.9 363.1,537.3  " class="st5" id="XMLID_178_"/>
   <polyline points="395.7,538.4 373.1,508.9 355,529.1  " class="st5" id="XMLID_181_"/>
   <circle r="4.9" cy="562.1" cx="395.5" class="st5" id="XMLID_187_"/>
   <circle r="6.2" cy="508.9" cx="351.2" class="st3" id="XMLID_189_"/>
   <circle r="6.2" cy="508.9" cx="351.2" class="st5" id="XMLID_188_"/>
   <g id="XMLID_194_">
    <line y2="454.3" x2="334.3" y1="454.3" x1="307.5" class="st5" id="XMLID_198_"/>
    <line y2="454.3" x2="300.3" y1="454.3" x1="293.2" class="st5" id="XMLID_195_"/>
    <line y2="441.9" x2="334.3" y1="441.9" x1="320.9" class="st5" id="XMLID_199_"/>
    <line y2="441.9" x2="314.1" y1="441.9" x1="310.1" class="st5" id="XMLID_196_"/>
   </g>
   <g id="XMLID_200_">
    <line y2="532.7" x2="299.4" y1="532.7" x1="278.5" class="st5" id="XMLID_205_"/>
    <line y2="532.7" x2="272.9" y1="532.7" x1="267.4" class="st5" id="XMLID_204_"/>
    <line y2="520.3" x2="299.4" y1="520.3" x1="290.9" class="st5" id="XMLID_202_"/>
    <line y2="520.3" x2="283.7" y1="520.3" x1="280.5" class="st5" id="XMLID_201_"/>
   </g>
   <g id="XMLID_229_">
    <line y2="387.6" x2="631.6" y1="387.6" x1="611.8" class="st5" id="XMLID_233_"/>
    <line y2="387.6" x2="605.2" y1="387.6" x1="599.6" class="st5" id="XMLID_232_"/>
    <line y2="375.2" x2="631.6" y1="375.2" x1="623.1" class="st5" id="XMLID_231_"/>
    <line y2="375.2" x2="615.9" y1="375.2" x1="612.8" class="st5" id="XMLID_230_"/>
   </g>
   <path d="m627.2,457.5l-78.2,0c-4.8,0 -8.6,-3.9 -8.6,-8.6l0,-37.9c0,-4.8 3.9,-8.6 8.6,-8.6l78.2,0c4.8,0 8.6,3.9 8.6,8.6l0,37.8c0,4.8 -3.8,8.7 -8.6,8.7z" class="st21" id="XMLID_211_"/>
   <path d="m627.2,457.5l-78.2,0c-4.8,0 -8.6,-3.9 -8.6,-8.6l0,-37.9c0,-4.8 3.9,-8.6 8.6,-8.6l78.2,0c4.8,0 8.6,3.9 8.6,8.6l0,37.8c0,4.8 -3.8,8.7 -8.6,8.7z" class="st6" id="XMLID_197_"/>
   <line y2="417.2" x2="621.9" y1="417.2" x1="588.1" class="st34" id="XMLID_214_"/>
   <line y2="428.1" x2="610.5" y1="428.1" x1="588.1" class="st34" id="XMLID_216_"/>
   <g class="st35" id="XMLID_224_">
    <path d="m605.1,444.4l-13.6,0c-1.8,0 -3.3,-1.5 -3.3,-3.3l0,0c0,-1.8 1.5,-3.3 3.3,-3.3l13.6,0c1.8,0 3.3,1.5 3.3,3.3l0,0c0,1.8 -1.4,3.3 -3.3,3.3z" class="st9" id="XMLID_217_"/>
    <path d="m605.1,444.4l-13.6,0c-1.8,0 -3.3,-1.5 -3.3,-3.3l0,0c0,-1.8 1.5,-3.3 3.3,-3.3l13.6,0c1.8,0 3.3,1.5 3.3,3.3l0,0c0,1.8 -1.4,3.3 -3.3,3.3z" class="st36" id="XMLID_213_"/>
   </g>
   <g id="XMLID_226_">
    <path d="m574,444.9l-17.9,0c-2.6,0 -4.6,-2.1 -4.6,-4.6l0,-20.9c0,-2.6 2.1,-4.6 4.6,-4.6l17.9,0c2.6,0 4.6,2.1 4.6,4.6l0,20.9c0,2.5 -2,4.6 -4.6,4.6z" class="st36" id="XMLID_206_"/>
    <circle r="4.8" cy="426.4" cx="565.1" class="st36" id="XMLID_225_"/>
    <path d="m556,444.4c0,-5 4.1,-9.1 9.1,-9.1s9.1,4.1 9.1,9.1" class="st36" id="XMLID_227_"/>
   </g>
  </g>
  <g id="svg_125">
   <path id="svg_126" d="m248.9,848.1l-14.5,0l-2.4,6.9l-7.7,0l13.1,-36.5l8.5,0l13.1,36.5l-7.7,0l-2.4,-6.9zm-7.3,-21.1l-5.3,15.3l10.6,0l-5.3,-15.3z" class="st1"/>
   <path id="svg_127" d="m282.5,841l-6.1,0l0,14l-7.3,0l0,-36.5l13.4,0c8.8,0 13.2,5 13.2,11.3c0,5.6 -3.8,11.2 -13.2,11.2zm-0.3,-5.9c4.1,0 6,-2 6,-5.3c0,-3.3 -1.8,-5.3 -6,-5.3l-5.8,0l0,10.6l5.8,0z" class="st1"/>
   <path id="svg_128" d="m319.5,841l-6.1,0l0,14l-7.3,0l0,-36.5l13.4,0c8.8,0 13.2,5 13.2,11.3c0,5.6 -3.8,11.2 -13.2,11.2zm-0.3,-5.9c4.1,0 6,-2 6,-5.3c0,-3.3 -1.8,-5.3 -6,-5.3l-5.8,0l0,10.6l5.8,0z" class="st1"/>
   <path id="svg_129" d="m392.7,836.8c0,11 -7.6,18.2 -19.2,18.2l-12.7,0l0,-36.5l12.7,0c11.6,0 19.2,7.3 19.2,18.3zm-19.5,12c7.7,0 12,-4.4 12,-12c0,-7.6 -4.3,-12.1 -12,-12.1l-5.2,0l0,24.1l5.2,0z" class="st1"/>
   <path id="svg_130" d="m424.6,824.4l-13.8,0l0,9.1l12.2,0l0,5.8l-12.3,0l0,9.7l13.8,0l0,6l-21.2,0l0,-36.5l21.2,0l0,5.9l0.1,0z" class="st1"/>
   <path id="svg_131" d="m461.4,818.5l7.8,0l-13.4,36.5l-8.9,0l-13.4,-36.5l7.8,0l10,29l10.1,-29z" class="st1"/>
   <path id="svg_132" d="m500,824.4l-13.8,0l0,9.1l12.3,0l0,5.8l-12.3,0l0,9.7l13.8,0l0,6l-21.2,0l0,-36.5l21.2,0l0,5.9z" class="st1"/>
   <path id="svg_133" d="m519.1,818.5l0,30.7l12,0l0,5.8l-19.3,0l0,-36.5l7.3,0z" class="st1"/>
   <path id="svg_134" d="m557.9,855.4c-10.3,0 -18.7,-7.7 -18.7,-18.7c0,-10.9 8.4,-18.6 18.7,-18.6c10.4,0 18.6,7.7 18.6,18.6c0.1,10.9 -8.2,18.7 -18.6,18.7zm0,-6.6c6.6,0 11.1,-4.8 11.1,-12.2s-4.5,-12.1 -11.1,-12.1c-6.6,0 -11.2,4.6 -11.2,12.1s4.6,12.2 11.2,12.2z" class="st1"/>
   <path id="svg_135" d="m600.7,841l-6.1,0l0,14l-7.3,0l0,-36.5l13.4,0c8.8,0 13.2,5 13.2,11.3c-0.1,5.6 -3.8,11.2 -13.2,11.2zm-0.3,-5.9c4.1,0 6,-2 6,-5.3c0,-3.3 -1.8,-5.3 -6,-5.3l-5.8,0l0,10.6l5.8,0z" class="st1"/>
   <path id="svg_136" d="m624.2,818.5l8.3,0l11.6,27.1l11.6,-27.1l8.3,0l0,36.5l-7.3,0l0,-23.7l-9.8,23.7l-5.5,0l-9.8,-23.7l0,23.7l-7.3,0l0,-36.5l-0.1,0z" class="st1"/>
   <path id="svg_137" d="m697.6,824.4l-13.8,0l0,9.1l12.2,0l0,5.8l-12.3,0l0,9.7l13.8,0l0,6l-21.2,0l0,-36.5l21.2,0l0,5.9l0.1,0z" class="st1"/>
   <path id="svg_138" d="m740.6,818.5l0,36.5l-7.3,0l-16.6,-25l0,25l-7.3,0l0,-36.5l7.3,0l16.6,25.1l0,-25.1l7.3,0z" class="st1"/>
   <path id="svg_139" d="m751.1,818.5l26.7,0l0,5.9l-9.7,0l0,30.6l-7.3,0l0,-30.6l-9.7,0l0,-5.9z" class="st1"/>
  </g>
 </g>
</svg>