<svg width="1000" height="1000" xmlns="http://www.w3.org/2000/svg">
 <style type="text/css">.st0{fill:#6A737F;}
	.st1{fill:#EEF2F4;}
	.st2{fill:#FFFFFF;}
	.st3{fill:#444E59;}
	.st4{fill:#BBBFC2;}
	.st5{fill:#28A8E0;}
	.st6{opacity:0.4;fill:#848484;}
	.st7{fill:none;stroke:#444E59;stroke-width:4;stroke-linecap:round;stroke-linejoin:round;stroke-miterlimit:10;}
	.st8{opacity:0.32;fill:#848484;}
	.st9{fill:#AFB1B2;}
	.st10{fill:#AEAEAF;}
	.st11{fill:#6567C3;}
	.st12{opacity:0.2;fill:#444E59;}
	.st13{opacity:0.2;fill:none;stroke:#444E59;stroke-width:4;stroke-linecap:round;stroke-linejoin:round;stroke-miterlimit:10;}
	.st14{opacity:0.2;}
	.st15{opacity:9.000000e-02;}
	.st16{fill:#F09F54;}
	.st17{fill:#ED8B3B;}
	.st18{fill:#FF6C37;}
	.st19{fill:#8D91DB;}
	.st20{fill:#BECCD5;stroke:#444E59;stroke-width:4;stroke-linecap:round;stroke-linejoin:round;stroke-miterlimit:10;}
	.st21{opacity:0.3;fill:none;stroke:#444E59;stroke-width:4;stroke-linecap:round;stroke-linejoin:round;stroke-miterlimit:10;}
	.st22{opacity:0.62;fill:#FFFFFF;}
	.st23{opacity:0.71;fill:#5D5D5D;}
	.st24{opacity:0.8;fill:#BBBFC2;}
	.st25{opacity:0.3;}
	.st26{fill:none;stroke:#444E59;stroke-width:2;stroke-linejoin:round;}
	.st27{fill:none;stroke:#444E59;stroke-width:2;stroke-linejoin:round;stroke-dasharray:2.858,1.9053;}
	.st28{fill:none;stroke:#444E59;stroke-width:2;stroke-linejoin:round;stroke-dasharray:3.0046,2.003;}
	.st29{fill:none;stroke:#444E59;stroke-linejoin:round;stroke-miterlimit:10;}
	.st30{fill:none;stroke:#444E59;stroke-linecap:round;stroke-linejoin:round;stroke-miterlimit:10;}</style>

 <g>
  <title>background</title>
  <rect fill="none" id="canvas_background" height="402" width="582" y="-1" x="-1"/>
 </g>
 <g>
  <title>Layer 1</title>
  <rect y="0" id="svg_1" height="1000" width="1000" class="st0" x="-2"/>
  <g id="svg_103">
   <path id="svg_104" d="m415.5,822.5l7.3,0l0,22.6c0,5 2.7,7.6 7.4,7.6c4.7,0 7.4,-2.6 7.4,-7.6l0,-22.6l7.4,0l0,22.5c0,9.6 -6.9,14.3 -14.9,14.3s-14.6,-4.7 -14.6,-14.3l0,-22.5z" class="st2"/>
   <path id="svg_105" d="m457.3,822.5l7.3,0l0,36.5l-7.3,0l0,-36.5z" class="st2"/>
   <path id="svg_106" d="m489.5,809.5l7.2,0l-14.1,58.9l-7.2,0l14.1,-58.9z" class="st2"/>
   <path id="svg_107" d="m507.5,822.5l7.3,0l0,22.6c0,5 2.7,7.6 7.4,7.6c4.7,0 7.4,-2.6 7.4,-7.6l0,-22.6l7.4,0l0,22.5c0,9.6 -6.9,14.3 -14.9,14.3s-14.6,-4.7 -14.6,-14.3l0,-22.5z" class="st2"/>
   <path id="svg_108" d="m563.2,846.7l-7.2,12.3l-8.3,0l11.5,-18.4l-11.6,-18.1l8.4,0l7.9,12.2l7.1,-12.2l8.3,0l-11.4,18.3l11.6,18.1l-8.4,0l-7.9,-12.2z" class="st2"/>
  </g>
  <path d="m909.8,666.3l-814.1,0c-5,0 -9,-4 -9,-9l0,0c0,-5 4,-9 9,-9l814.2,0c5,0 9,4 9,9l0,0c-0.1,5 -4.1,9 -9.1,9z" class="st3" id="XMLID_1313_"/>
  <g id="XMLID_24_">
   <rect height="8.4" width="140.8" class="st3" y="647.8" x="407.4" id="XMLID_6_"/>
   <g id="XMLID_104_">
    <path d="m646,592.9l-332.2,0c-6.6,0 -12,-5.4 -12,-12l0,-222.5c0,-6.6 5.4,-12 12,-12l332.2,0c6.6,0 12,5.4 12,12l0,222.4c0,6.7 -5.3,12.1 -12,12.1z" class="st4" id="XMLID_76_"/>
    <rect height="312.6" width="181.7" class="st5" transform="matrix(-1.83697e-16,1,-1,-1.83697e-16,940.3873,-20.8206) " y="303.5" x="389.8" id="XMLID_80_"/>
    <path d="m646.8,592.9l-52.1,0l0,-94.8c0,-7.6 6.1,-13.7 13.7,-13.7l38.4,0l0,108.5z" class="st6" id="XMLID_18_"/>
    <path d="m327.1,501.3l-25.3,0l0,74.7c0,9.3 8,16.9 17.4,16.9l29.1,0l0,-70c-0.1,-11.7 -9.6,-21.6 -21.2,-21.6z" class="st6" id="XMLID_107_"/>
    <path d="m647,592.9l-332.8,0c-6.6,0 -12,-5.4 -12,-12l0,-222.5c0,-6.6 5.4,-12 12,-12l332.8,0c6.6,0 12,5.4 12,12l0,222.4c0,6.7 -5.4,12.1 -12,12.1z" class="st7" id="XMLID_5_"/>
    <rect height="311.7" width="181.7" class="st7" transform="matrix(-1.83697e-16,1,-1,-1.83697e-16,940.3846,-20.8233) " y="303.9" x="389.8" id="XMLID_7_"/>
   </g>
   <path d="m575.9,541.9l-171.8,0c-3.9,0 -7,-3.2 -7,-7l0,-122.6c0,-3.9 3.2,-7 7,-7l171.8,0c3.9,0 7,3.2 7,7l0,122.5c0,3.9 -3.1,7.1 -7,7.1z" class="st8" id="XMLID_179_"/>
   <path d="m567.9,535.1l-171.8,0c-3.9,0 -7,-3.2 -7,-7l0,-122.5c0,-3.9 3.2,-7 7,-7l171.8,0c3.9,0 7,3.2 7,7l0,122.5c0.1,3.9 -3.1,7 -7,7z" class="st9" id="XMLID_134_"/>
   <path d="m567.9,535.1l-171.8,0c-3.9,0 -7,-3.2 -7,-7l0,-122.5c0,-3.9 3.2,-7 7,-7l171.8,0c3.9,0 7,3.2 7,7l0,122.5c0.1,3.9 -3.1,7 -7,7z" class="st7" id="XMLID_137_"/>
   <polygon points="522.5,647.8 438.7,647.8 449.1,592.9 512.1,592.9  " class="st10" id="XMLID_96_"/>
   <polygon points="514.9,608.4 512.1,592.9 449.1,592.9 446.3,608.4  " class="st8" id="XMLID_99_"/>
   <polygon points="522.5,647.8 438.7,647.8 449.1,592.9 512.1,592.9  " class="st7" id="XMLID_3_"/>
   <rect height="8.4" width="140.8" class="st7" y="647.8" x="407.4" id="XMLID_8_"/>
   <circle r="6.2" cy="567.7" cx="480.1" class="st3" id="XMLID_9_"/>
   <path d="m553.8,522.5l-171.8,0c-3.9,0 -7,-3.2 -7,-7l0,-122.6c0,-3.9 3.2,-7 7,-7l171.8,0c3.9,0 7,3.2 7,7l0,122.5c0.1,3.9 -3.1,7.1 -7,7.1z" class="st2" id="XMLID_133_"/>
   <path d="m553.8,522.5l-171.8,0c-3.9,0 -7,-3.2 -7,-7l0,-122.6c0,-3.9 3.2,-7 7,-7l171.8,0c3.9,0 7,3.2 7,7l0,122.5c0.1,3.9 -3.1,7.1 -7,7.1z" class="st7" id="XMLID_25_"/>
   <path d="m560.9,407l-185.9,0l0,-13.8c0,-4 3.3,-7.4 7.4,-7.4l171.6,0c3.8,0 6.9,3.1 6.9,6.9l0,14.3z" class="st4" id="XMLID_105_"/>
   <path d="m560.9,407l-185.9,0l0,-13.8c0,-4 3.3,-7.4 7.4,-7.4l171.6,0c3.8,0 6.9,3.1 6.9,6.9l0,14.3z" class="st7" id="XMLID_26_"/>
   <g id="XMLID_108_">
    <circle r="3.3" cy="396.5" cx="392.9" class="st3" id="XMLID_106_"/>
    <circle r="3.3" cy="396.5" cx="403.8" class="st3" id="XMLID_109_"/>
    <circle r="3.3" cy="396.5" cx="414.6" class="st3" id="XMLID_120_"/>
   </g>
   <path d="m543.4,443.6l-152.3,0c-1.1,0 -2,-0.9 -2,-2l0,-21.3c0,-1.1 0.9,-2 2,-2l152.3,0c1.1,0 2,0.9 2,2l0,21.3c0,1.1 -0.9,2 -2,2z" class="st11" id="XMLID_122_"/>
   <g id="XMLID_123_">
    <path d="m434.9,470.3l-43.9,0c-1.1,0 -2,-0.9 -2,-2l0,-11.5c0,-1.1 0.9,-2 2,-2l43.9,0c1.1,0 2,0.9 2,2l0,11.5c0,1.1 -0.8,2 -2,2z" class="st12" id="XMLID_124_"/>
    <line y2="481.6" x2="431.3" y1="481.6" x1="396.1" class="st13" id="XMLID_125_"/>
    <line y2="492.9" x2="431.3" y1="492.9" x1="396.1" class="st13" id="XMLID_128_"/>
   </g>
   <g id="XMLID_127_">
    <path d="m489.9,470.3l-43.9,0c-1.1,0 -2,-0.9 -2,-2l0,-11.5c0,-1.1 0.9,-2 2,-2l43.9,0c1.1,0 2,0.9 2,2l0,11.5c0,1.1 -0.9,2 -2,2z" class="st12" id="XMLID_131_"/>
    <line y2="481.6" x2="484.8" y1="481.6" x1="451" class="st13" id="XMLID_130_"/>
    <line y2="492.9" x2="484.8" y1="492.9" x1="451" class="st13" id="XMLID_129_"/>
   </g>
   <g class="st14" id="XMLID_132_">
    <path d="m544.8,494.3l-43.9,0c-1.1,0 -2,-0.9 -2,-2l0,-35.4c0,-1.1 0.9,-2 2,-2l43.9,0c1.1,0 2,0.9 2,2l0,35.4c0,1.1 -0.9,2 -2,2z" class="st3" id="XMLID_135_"/>
   </g>
   <g class="st15" id="XMLID_126_">
    <path d="m543.4,505.6l-41.8,0c-1.6,0 -2.8,-1.3 -2.8,-2.8s1.3,-2.8 2.8,-2.8l41.8,0c1.6,0 2.8,1.3 2.8,2.8s-1.3,2.8 -2.8,2.8z" class="st3" id="XMLID_136_"/>
   </g>
  </g>
  <g id="XMLID_23_">
   <g id="XMLID_12_">
    <path d="m229.2,613.4l-80.6,0c-1,0 -1.9,0.3 -2.6,1l-19.5,17c-1.8,1.6 -1.8,4.4 0,5.9l19.5,17.3c0.7,0.6 1.6,1.2 2.6,1.2l80.6,0c4.6,0 8.4,-4.2 8.4,-8.8l0,-25.5c-0.1,-4.4 -3.8,-8.1 -8.4,-8.1zm-82.8,25.9c-2.7,0 -5,-2.2 -5,-5s2.2,-5 5,-5s5,2.2 5,5s-2.2,5 -5,5z" class="st2" id="XMLID_71_"/>
    <rect height="42.5" width="23.5" class="st16" y="613.4" x="167.1" id="XMLID_70_"/>
    <rect height="42.5" width="23.5" class="st17" y="613.4" x="190.6" id="XMLID_69_"/>
    <path d="m227.1,655.9l-13,0l0,-42.5l13.4,0c5.5,0 10.1,4.5 10.1,10.1l0,22c-0.1,5.7 -4.8,10.4 -10.5,10.4z" class="st18" id="XMLID_58_"/>
    <path d="m231.4,615.5c-0.4,-0.1 -0.8,-0.1 -1.2,-0.1l-80.6,0c-1,0 -1.9,0.3 -2.6,1l-19.5,17c-1.8,1.6 -1.8,4.4 0,5.9l12.2,10.7l13.2,3.3c0.6,0.2 1.3,0.2 2,0.2c1.3,0 2.5,-0.3 3.7,-0.9l71.8,-36.6c0.3,-0.1 0.7,-0.3 1,-0.5zm-84,25.8c-2.7,0 -5,-2.2 -5,-5s2.2,-5 5,-5s5,2.2 5,5s-2.2,5 -5,5z" class="st6" id="XMLID_117_"/>
    <path d="m229.2,613.4l-80.6,0c-1,0 -1.9,0.3 -2.6,1l-19.5,17c-1.8,1.6 -1.8,4.4 0,5.9l19.5,17.3c0.7,0.6 1.6,1.2 2.6,1.2l80.6,0c4.6,0 8.4,-4.2 8.4,-8.8l0,-25.5c-0.1,-4.4 -3.8,-8.1 -8.4,-8.1zm-82.8,25.9c-2.7,0 -5,-2.2 -5,-5s2.2,-5 5,-5s5,2.2 5,5s-2.2,5 -5,5z" class="st7" id="XMLID_29_"/>
    <rect height="42.5" width="23.5" class="st7" y="613.4" x="167.1" id="XMLID_17_"/>
    <rect height="42.5" width="23.5" class="st7" y="613.4" x="190.6" id="XMLID_21_"/>
    <path d="m227.1,655.9l-13,0l0,-42.5l13.4,0c5.5,0 10.1,4.5 10.1,10.1l0,22c-0.1,5.7 -4.8,10.4 -10.5,10.4z" class="st7" id="XMLID_22_"/>
   </g>
   <g id="XMLID_20_">
    <path d="m208.4,573l-71.8,36.6c-0.9,0.4 -1.5,1.2 -1.9,2.1l-9.6,24c-0.9,2.2 0.4,4.7 2.7,5.3l25.1,6.4c0.9,0.2 1.9,0.1 2.8,-0.3l71.8,-36.6c4.1,-2.1 5.7,-7.1 3.6,-11.1l-11.6,-22.7c-2.1,-4.2 -7.1,-5.8 -11.1,-3.7z" class="st2" id="XMLID_74_"/>
    <rect height="42" width="23.5" class="st19" transform="matrix(0.8908,-0.4545,0.4545,0.8908,-253.2897,154.0934) " y="582.9" x="182.2" id="XMLID_77_"/>
    <path d="m208.4,573l-71.8,36.6c-0.9,0.4 -1.5,1.2 -1.9,2.1l-9.6,24c-0.9,2.2 0.4,4.7 2.7,5.3l25.1,6.4c0.9,0.2 1.9,0.1 2.8,-0.3l71.8,-36.6c4.1,-2.1 5.7,-7.1 3.6,-11.1l-11.6,-22.7c-2.1,-4.2 -7.1,-5.8 -11.1,-3.7z" class="st7" id="XMLID_33_"/>
    <circle r="5.8" cy="629.3" cx="144.2" class="st3" id="XMLID_34_"/>
    <rect height="42" width="23.5" class="st20" transform="matrix(0.8908,-0.4545,0.4545,0.8908,-260.4252,145.7524) " y="593.6" x="161.2" id="XMLID_79_"/>
    <rect height="42" width="23.5" class="st7" transform="matrix(0.8908,-0.4545,0.4545,0.8908,-260.4252,145.7524) " y="593.6" x="161.2" id="XMLID_32_"/>
    <rect height="42" width="23.5" class="st7" transform="matrix(0.8908,-0.4545,0.4545,0.8908,-253.2897,154.0934) " y="582.9" x="182.2" id="XMLID_31_"/>
    <path d="m225.9,611.2l-12,6.1l-19.1,-37.4l12,-6.1c4.9,-2.5 10.9,-0.6 13.5,4.4l10,19.6c2.5,4.9 0.5,10.9 -4.4,13.4z" class="st11" id="XMLID_30_"/>
    <path d="m225.9,611.2l-12,6.1l-19.1,-37.4l12,-6.1c4.9,-2.5 10.9,-0.6 13.5,4.4l10,19.6c2.5,4.9 0.5,10.9 -4.4,13.4z" class="st7" id="XMLID_78_"/>
   </g>
  </g>
  <g id="XMLID_90_">
   <path d="m327,656.2l-67.3,0c-5.5,0 -10,-4.5 -10,-10l0,-134.9c0,-5.5 4.5,-10 10,-10l67.3,0c5.5,0 10,4.5 10,10l0,134.9c0,5.6 -4.5,10 -10,10z" class="st2" id="XMLID_102_"/>
   <path d="m338.4,547.8l-88.7,0l0,-36.7c0,-5.4 4.4,-9.8 9.8,-9.8l68.5,0c5.7,0 10.3,4.7 10.3,10.3l0,36.2l0.1,0z" class="st11" id="XMLID_83_"/>
   <path d="m327,656.2l-67.3,0c-5.5,0 -10,-4.5 -10,-10l0,-134.9c0,-5.5 4.5,-10 10,-10l67.3,0c5.5,0 10,4.5 10,10l0,134.9c0,5.6 -4.5,10 -10,10z" class="st7" id="XMLID_10_"/>
   <path d="m327.1,656.2l-67.1,0c-5.7,0 -10.4,-4.7 -10.4,-10.4l0,-19.2l87.4,0l0,19.7c0,5.5 -4.5,9.9 -9.9,9.9z" class="st4" id="XMLID_82_"/>
   <path d="m327.3,656.2l-67.3,0c-5.7,0 -10.4,-4.7 -10.4,-10.4l0,-19.2l87.4,0l0,19.9c0,5.4 -4.4,9.7 -9.7,9.7z" class="st7" id="XMLID_81_"/>
   <circle r="5" cy="640.8" cx="294" class="st3" id="XMLID_84_"/>
   <line y2="563.3" x2="318.7" y1="563.3" x1="269.4" class="st21" id="XMLID_86_"/>
   <line y2="578.8" x2="310.2" y1="578.8" x1="279.2" class="st21" id="XMLID_87_"/>
   <line y2="592.9" x2="318.7" y1="592.9" x1="269.4" class="st21" id="XMLID_88_"/>
   <circle r="11.2" cy="528.1" cx="294" class="st22" id="XMLID_85_"/>
   <path d="m310.2,608.4c0,3.1 -2.5,5.6 -5.6,5.6l-21.1,0c-3.1,0 -5.6,-2.5 -5.6,-5.6l0,0c0,-3.1 2.5,-5.6 5.6,-5.6l21.1,0c3.1,-0.1 5.6,2.4 5.6,5.6l0,0z" class="st17" id="XMLID_89_"/>
  </g>
  <g id="XMLID_111_">
   <path d="m848.2,637.9l-242.3,0l0,-145.6c0,-4.3 3.5,-7.8 7.8,-7.8l226.8,0c4.2,0 7.6,3.4 7.6,7.6l0,145.8l0.1,0z" class="st4" id="XMLID_100_"/>
   <path d="m848.8,638.2l-242.2,0l0,-146c0,-4.4 3.6,-8 8,-8l226.2,0c4.4,0 8,3.6 8,8l0,146z" class="st7" id="XMLID_11_"/>
   <rect height="215.5" width="128.2" class="st23" transform="matrix(-1.83697e-16,1,-1,-1.83697e-16,1288.9274,-166.5738) " y="453.4" x="663.7" id="XMLID_101_"/>
   <path d="m672.7,600.9l-18.6,0c-1.1,0 -2,-0.9 -2,-2l0,-63.7c0,-1.1 0.9,-2 2,-2l18.6,0c1.1,0 2,0.9 2,2l0,63.8c0,1 -0.9,1.9 -2,1.9z" class="st8" id="XMLID_183_"/>
   <path d="m807,613.8l-107.4,0c-2.2,0 -4,-1.8 -4,-4l0,-82.1c0,-2.2 1.8,-4 4,-4l107.4,0c2.2,0 4,1.8 4,4l0,82.1c0,2.2 -1.7,4 -4,4z" class="st8" id="XMLID_178_"/>
   <rect height="215.3" width="127.1" class="st7" transform="matrix(-1.83697e-16,1,-1,-1.83697e-16,1288.8374,-166.4797) " y="453.5" x="664.1" id="XMLID_103_"/>
   <path d="m875.2,638.2l-295.1,0l0,9.4c0,4.4 3.6,8 8,8l279.1,0c4.4,0 8,-3.6 8,-8l0,-9.4z" class="st2" id="XMLID_110_"/>
   <path d="m591.4,656.2l272.6,0c5.5,0 10,-4.2 11,-9.9l-294.7,0c1,5.7 5.6,9.9 11.1,9.9z" class="st24" id="XMLID_206_"/>
   <path d="m875.2,638.2l-295.1,0l0,9.4c0,4.4 3.6,8 8,8l279.1,0c4.4,0 8,-3.6 8,-8l0,-9.4z" class="st7" id="XMLID_15_"/>
   <rect height="22.5" width="22.5" class="st16" y="528.1" x="646.8" id="XMLID_201_"/>
   <rect height="22.5" width="22.5" class="st7" y="528.3" x="647.2" id="XMLID_138_"/>
   <rect height="22.5" width="22.5" class="st7" y="528.3" x="647.2" id="XMLID_180_"/>
   <rect height="22.5" width="22.5" class="st19" y="550.6" x="646.8" id="XMLID_156_"/>
   <rect height="22.5" width="22.5" class="st7" y="550.9" x="647.2" id="XMLID_140_"/>
   <rect height="22.5" width="22.5" class="st11" y="573.1" x="646.8" id="XMLID_202_"/>
   <rect height="22.5" width="22.5" class="st7" y="573.4" x="647.2" id="XMLID_143_"/>
   <path d="m800.5,606.9l-107.5,0c-2.2,0 -4,-1.8 -4,-4l0,-82.1c0,-2.2 1.8,-4 4,-4l107.5,0c2.2,0 4,1.8 4,4l0,82.1c0,2.3 -1.8,4 -4,4z" class="st2" id="XMLID_115_"/>
   <path d="m800.5,606.9l-107.5,0c-2.2,0 -4,-1.8 -4,-4l0,-82.1c0,-2.2 1.8,-4 4,-4l107.5,0c2.2,0 4,1.8 4,4l0,82.1c0,2.3 -1.8,4 -4,4z" class="st7" id="XMLID_139_"/>
   <g class="st25" id="XMLID_147_">
    <g id="XMLID_205_">
     <polyline points="770.7,583.2 770.7,584.7 769.2,584.7    " class="st26" id="XMLID_419_"/>
     <line y2="584.7" x2="725.4" y1="584.7" x1="767.3" class="st27" id="XMLID_418_"/>
     <polyline points="724.4,584.7 722.9,584.7 722.9,583.2    " class="st26" id="XMLID_417_"/>
     <line y2="542.1" x2="722.9" y1="581.1" x1="722.9" class="st28" id="XMLID_416_"/>
     <polyline points="722.9,541.1 722.9,539.6 724.4,539.6    " class="st26" id="XMLID_415_"/>
     <line y2="539.6" x2="768.2" y1="539.6" x1="726.3" class="st27" id="XMLID_214_"/>
     <polyline points="769.2,539.6 770.7,539.6 770.7,541.1    " class="st26" id="XMLID_213_"/>
     <line y2="582.2" x2="770.7" y1="543.1" x1="770.7" class="st28" id="XMLID_211_"/>
    </g>
   </g>
   <g id="XMLID_155_">
    <rect height="7.1" width="7.1" class="st2" y="536.1" x="719.6" id="XMLID_154_"/>
    <rect height="7" width="7" class="st29" y="535.8" x="719.3" id="XMLID_153_"/>
   </g>
   <g id="XMLID_157_">
    <rect height="7.1" width="7.1" class="st2" y="581.1" x="719.6" id="XMLID_159_"/>
    <rect height="7" width="7" class="st29" y="580.9" x="719.3" id="XMLID_158_"/>
   </g>
   <g id="XMLID_162_">
    <rect height="7.1" width="7.1" class="st2" y="536.1" x="767.2" id="XMLID_166_"/>
    <rect height="7" width="7" class="st29" y="535.8" x="767.2" id="XMLID_164_"/>
   </g>
   <g id="XMLID_196_">
    <rect height="7.1" width="7.1" class="st2" y="581.1" x="767.2" id="XMLID_198_"/>
    <rect height="7" width="7" class="st29" y="580.9" x="767.2" id="XMLID_197_"/>
   </g>
   <g id="XMLID_229_">
    <g id="XMLID_225_">
     <polygon points="658.5,562.5 665.6,577.7 672.5,581.3 677.3,576.5 673.8,569.5    " class="st2" id="XMLID_230_"/>
     <polygon points="658.5,562.5 665.6,577.7 672.5,581.3 677.3,576.5 673.8,569.5    " class="st29" id="XMLID_227_"/>
     <circle r="1.9" cy="571.1" cx="667.5" class="st3" id="XMLID_224_"/>
     <line y2="570.4" x2="666.4" y1="562.5" x1="658.5" class="st30" id="XMLID_226_"/>
    </g>
    <rect height="4.9" width="6.8" class="st2" transform="matrix(0.7071,-0.7071,0.7071,0.7071,-212.3433,648.545) " y="578.1" x="673.3" id="XMLID_231_"/>
    <rect height="4.9" width="6.8" class="st29" transform="matrix(0.7071,-0.7071,0.7071,0.7071,-212.3433,648.545) " y="578.1" x="673.3" id="XMLID_228_"/>
   </g>
  </g>
 </g>
</svg>